name C:\Users\u0101727\Documents\MyRepositories\upper-imu-dc\Results\main_tracking\Case_48\kinematics.mot
datacolumns 10
datarows 37
range 8.05000000 8.41000000
endheader 
time	clav_prot	clav_elev	scapula_abduction	scapula_elevation	scapula_upward_rot	scapula_winging	plane_elv	shoulder_elv	axial_rot	
          8.05000000	        -40.33025900	          4.92686534	        -24.54865069	         -4.23765812	         41.81250682	         -8.38200555	         31.07625215	         74.14992190	         -4.78206679	
          8.06000000	        -40.33574853	          4.85101855	        -24.91691238	         -4.22990220	         41.30747942	         -8.27786385	         31.06696553	         73.80555710	         -4.87881537	
          8.07000000	        -40.34531825	          4.78169091	        -25.27655404	         -4.21917275	         40.82357802	         -8.17982223	         31.04187921	         73.45100716	         -4.98073374	
          8.08000000	        -40.35850597	          4.71857920	        -25.62677212	         -4.20582384	         40.36090182	         -8.08778353	         31.00100511	         73.08639417	         -5.08642410	
          8.09000000	        -40.37483698	          4.66131333	        -25.96680806	         -4.19023483	         39.91944112	         -8.00159076	         30.94444351	         72.71185801	         -5.19446581	
          8.10000000	        -40.39384291	          4.60948631	        -26.29598542	         -4.17278978	         39.49907765	         -7.92104541	         30.87240482	         72.32755492	         -5.30345919	
          8.11000000	        -40.41507747	          4.56268030	        -26.61374073	         -4.15385939	         39.09958515	         -7.84592326	         30.78522542	         71.93365583	         -5.41206415	
          8.12000000	        -40.43812818	          4.52048870	        -26.91964551	         -4.13378583	         38.72063154	         -7.77598744	         30.68337548	         71.53034372	         -5.51903354	
          8.13000000	        -40.46262382	          4.48253449	        -27.21341922	         -4.11287024	         38.36178314	         -7.71099863	         30.56745863	         71.11780990	         -5.62324235	
          8.14000000	        -40.48823787	          4.44848538	        -27.49493405	         -4.09136262	         38.02251038	         -7.65072285	         30.43820505	         70.69624949	         -5.72371277	
          8.15000000	        -40.51468816	          4.41806447	        -27.76421231	         -4.06945467	         37.70219375	         -7.59493586	         30.29645905	         70.26585772	         -5.81963372	
          8.16000000	        -40.54173250	          4.39105448	        -28.02141637	         -4.04727708	         37.40012920	         -7.54342365	         30.14316093	         69.82682853	         -5.91037247	
          8.17000000	        -40.56916037	          4.36729338	        -28.26683030	         -4.02490244	         37.11553275	         -7.49597791	         29.97932209	         69.37935675	         -5.99547547	
          8.18000000	        -40.59678104	          4.34666133	        -28.50083323	         -4.00235418	         36.84754536	         -7.45238698	         29.80599267	         68.92364377	         -6.07465784	
          8.19000000	        -40.62440941	          4.32906078	        -28.72386610	         -3.97962051	         36.59523905	         -7.41242370	         29.62422325	         68.45990499	         -6.14778288	
          8.20000000	        -40.65185140	          4.31439316	        -28.93639499	         -3.95667110	         36.35762546	         -7.37583237	         29.43502381	         67.98837686	         -6.21483576	
          8.21000000	        -40.67889100	          4.30253545	        -29.13887531	         -3.93347454	         36.13366670	         -7.34231716	         29.23932401	         67.50932139	         -6.27589529	
          8.22000000	        -40.70528064	          4.29331940	        -29.33172094	         -3.91001452	         35.92228779	         -7.31153340	         29.03793848	         67.02302758	         -6.33110709	
          8.23000000	        -40.73073571	          4.28651491	        -29.51528077	         -3.88630360	         35.72238974	         -7.28308266	         28.83153892	         66.52980988	         -6.38065988	
          8.24000000	        -40.75493323	          4.28181905	        -29.68982339	         -3.86239342	         35.53286251	         -7.25651191	         28.62063367	         66.03000448	         -6.42476609	
          8.25000000	        -40.77751374	          4.27885125	        -29.85552908	         -3.83838090	         35.35259792	         -7.23131646	         28.40555463	         65.52396375	         -6.46364648	
          8.26000000	        -40.79808560	          4.27715448	        -30.01248769	         -3.81441034	         35.18050205	         -7.20694607	         28.18645122	         65.01204964	         -6.49751672	
          8.27000000	        -40.81623111	          4.27620147	        -30.16070179	         -3.79067189	         35.01550665	         -7.18281351	         27.96329211	         64.49462663	         -6.52657321	
          8.28000000	        -40.83151454	          4.27540492	        -30.30009592	         -3.76739717	         34.85657822	         -7.15830505	         27.73587650	         63.97205442	         -6.55097663	
          8.29000000	        -40.84349292	          4.27413088	        -30.43053316	         -3.74485221	         34.70272378	         -7.13279269	         27.50385669	         63.44468085	         -6.57083469	
          8.30000000	        -40.85172935	          4.27171455	        -30.55183912	         -3.72332835	         34.55299323	         -7.10564776	         27.26677202	         62.91283599	         -6.58618757	
          8.31000000	        -40.85580852	          4.26747762	        -30.66383171	         -3.70313176	         34.40647869	         -7.07625558	         27.02409122	         62.37682840	         -6.59699958	
          8.32000000	        -40.85535256	          4.26074656	        -30.76635296	         -3.68457196	         34.26231235	         -7.04403002	         26.77525814	         61.83694387	         -6.60315959	
          8.33000000	        -40.85003588	          4.25087112	        -30.85929917	         -3.66795014	         34.11966449	         -7.00842759	         26.51973538	         61.29344621	         -6.60449129	
          8.34000000	        -40.83959736	          4.23724246	        -30.94264632	         -3.65354761	         33.97774264	         -6.96895995	         26.25704093	         60.74657922	         -6.60077341	
          8.35000000	        -40.82384921	          4.21930990	        -31.01646883	         -3.64161525	         33.83579248	         -6.92520438	         25.98677520	         60.19656912	         -6.59176973	
          8.36000000	        -40.80268196	          4.19659443	        -31.08095055	         -3.63236497	         33.69309992	         -6.87681120	         25.70863708	         59.64362755	         -6.57726785	
          8.37000000	        -40.77606549	          4.16869703	        -31.13638760	         -3.62596466	         33.54899393	         -6.82350737	         25.42242888	         59.08795606	         -6.55712383	
          8.38000000	        -40.74404645	          4.13530019	        -31.18318373	         -3.62253744	         33.40284906	         -6.76509586	         25.12805122	         58.52975387	         -6.53130843	
          8.39000000	        -40.70674315	          4.09616332	        -31.22184052	         -3.62216486	         33.25408668	         -6.70145127	         24.82549064	         57.96922954	         -6.49994921	
          8.40000000	        -40.66433919	          4.05111467	        -31.25294597	         -3.62489206	         33.10217450	         -6.63251332	         24.51480415	         57.40661590	         -6.46336490	
          8.41000000	        -40.61707759	          4.00004410	        -31.27716514	         -3.63073206	         32.94662440	         -6.55828042	         24.19610551	         56.84218545	         -6.42208949	
